# xmcd
#
# Track frame offsets:
#	150
#	18322
#	36038
#	52411
#	70235
#	85723
#	100443
#	117671
#	135147
#	154579
#	175015
#	196075
#	213668
#	238378
#	256890
#	274779
#	297225
#	313972
#
# Disc length: 4445 seconds
#
# Revision: 0
# Processed by: cddbd v1.5.2PL0 Copyright (c) Steve Scherf et al.
# Submitted via: EasyCDDAExtractor 12.0.7.1
#
DISCID=0a115b12
DTITLE=Стас Михайлов - Аллея шансона
DYEAR=2011
DGENRE=Chanson
TTITLE0=Моя любовь
TTITLE1=Все для тебя
TTITLE2=Родная
TTITLE3=Нежданная любовь
TTITLE4=Два сердца
TTITLE5=Звездой на небо
TTITLE6=Женщина-обман
TTITLE7=Берега мечты
TTITLE8=Душа
TTITLE9=Жизнь-река
TTITLE10=Дайте мне
TTITLE11=Живу и таю
TTITLE12=Небеса
TTITLE13=По тонкому льду
TTITLE14=Жди
TTITLE15=Мы все
TTITLE16=Странник
TTITLE17=Холодно
EXTD=
EXTT0=
EXTT1=
EXTT2=
EXTT3=
EXTT4=
EXTT5=
EXTT6=
EXTT7=
EXTT8=
EXTT9=
EXTT10=
EXTT11=
EXTT12=
EXTT13=
EXTT14=
EXTT15=
EXTT16=
EXTT17=
PLAYORDER=
